<svg width="645" height="467" viewBox="0 0 645 467" fill="none" xmlns="http://www.w3.org/2000/svg">
<path fill-rule="evenodd" clip-rule="evenodd" d="M448 14C448 6.26807 454.268 0 462 0H631C638.732 0 645 6.26807 645 14V453C645 460.732 638.732 467 631 467H462C454.268 467 448 460.732 448 453V14ZM464 66H630V101H464V66ZM630 131H464V166H630V131ZM560 301.5C560 308.956 553.956 315 546.5 315C539.044 315 533 308.956 533 301.5C533 294.044 539.044 288 546.5 288C553.956 288 560 294.044 560 301.5ZM546.5 348C551.194 348 555 344.194 555 339.5C555 334.806 551.194 331 546.5 331C541.806 331 538 334.806 538 339.5C538 344.194 541.806 348 546.5 348Z" fill="black"/>
<rect x="114" y="448" width="311" height="17" rx="8.5" fill="black"/>
<rect x="208" y="381" width="124" height="71" fill="black"/>
<path fill-rule="evenodd" clip-rule="evenodd" d="M425.5 4H21C9.40203 4 0 13.402 0 25V360C0 371.598 9.40167 381 21 381H425.5V361H21C20.4477 361 20 360.552 20 360V25C20 24.4477 20.4477 24 21 24H425.5V4Z" fill="black"/>
</svg>
