<svg width="513" height="301" viewBox="0 0 513 301" fill="none" xmlns="http://www.w3.org/2000/svg">
<path d="M454.589 273H460.589V267V16C460.589 10.4771 456.112 6 450.589 6H63.5889C58.066 6 53.5889 10.4772 53.5889 16V267V273H59.5889H454.589Z" stroke="black" stroke-width="12"/>
<path d="M220.589 283H1.08889C1.08889 283 0.888889 286.9 1.08889 289.5C1.28889 292.1 13.5889 300 15.0889 300H253.589H259.089H497.589C499.089 300 511.389 292.1 511.589 289.5C511.789 286.9 511.589 283 511.589 283H292.089C291.922 284.333 289.789 287 282.589 287H259.089H253.589H230.089C222.889 287 220.756 284.333 220.589 283Z" fill="black"/>
<path d="M1.08889 283V282.5H0.613873L0.589545 282.974L1.08889 283ZM220.589 283L221.085 282.938L221.03 282.5H220.589V283ZM1.08889 289.5L1.58742 289.462L1.08889 289.5ZM511.589 283L512.088 282.974L512.064 282.5H511.589V283ZM292.089 283V282.5H291.647L291.593 282.938L292.089 283ZM511.589 289.5L511.09 289.462L511.589 289.5ZM1.08889 283.5H220.589V282.5H1.08889V283.5ZM220.093 283.062C220.201 283.931 220.909 285.049 222.453 285.934C224.005 286.823 226.432 287.5 230.089 287.5V286.5C226.546 286.5 224.306 285.843 222.95 285.066C221.586 284.284 221.143 283.402 221.085 282.938L220.093 283.062ZM230.089 287.5H253.589V286.5H230.089V287.5ZM253.589 287.5H259.089V286.5H253.589V287.5ZM259.089 299.5H253.589V300.5H259.089V299.5ZM253.589 299.5H15.0889V300.5H253.589V299.5ZM15.0889 299.5C15.0921 299.5 15.0739 299.5 15.0263 299.489C14.9813 299.479 14.922 299.462 14.8472 299.437C14.6972 299.386 14.5053 299.308 14.2739 299.201C13.812 298.989 13.2217 298.678 12.5448 298.291C11.1924 297.518 9.52094 296.458 7.88802 295.315C6.25346 294.172 4.67004 292.955 3.48801 291.869C2.89611 291.326 2.41629 290.826 2.08232 290.392C1.73315 289.939 1.60047 289.631 1.58742 289.462L0.590362 289.538C0.627305 290.019 0.922749 290.526 1.29038 291.003C1.6732 291.499 2.19885 292.043 2.81164 292.606C4.03898 293.733 5.66182 294.978 7.31476 296.135C8.96934 297.292 10.6666 298.369 12.0486 299.159C12.7389 299.554 13.3572 299.88 13.8558 300.11C14.1047 300.224 14.3311 300.318 14.5261 300.384C14.7082 300.446 14.909 300.5 15.0889 300.5V299.5ZM1.08889 283C0.589545 282.974 0.589543 282.974 0.589541 282.974C0.589539 282.975 0.589535 282.975 0.589532 282.975C0.589524 282.975 0.589514 282.975 0.5895 282.975C0.589473 282.976 0.589434 282.977 0.589384 282.978C0.589283 282.98 0.589135 282.982 0.588943 282.986C0.588559 282.994 0.587998 283.005 0.587279 283.02C0.585839 283.05 0.583765 283.094 0.581202 283.15C0.576076 283.263 0.568995 283.426 0.561133 283.631C0.545414 284.039 0.526556 284.612 0.513981 285.265C0.488912 286.569 0.488453 288.214 0.590362 289.538L1.58742 289.462C1.48932 288.186 1.48887 286.581 1.5138 285.285C1.52622 284.638 1.54486 284.073 1.56039 283.669C1.56816 283.467 1.57514 283.306 1.58017 283.195C1.58269 283.14 1.58471 283.097 1.5861 283.069C1.5868 283.054 1.58734 283.043 1.5877 283.036C1.58788 283.033 1.58802 283.03 1.58811 283.028C1.58815 283.027 1.58818 283.027 1.5882 283.026C1.58822 283.026 1.58822 283.026 1.58823 283.026C1.58823 283.026 1.58823 283.026 1.58823 283.026C1.58823 283.026 1.58823 283.026 1.08889 283ZM511.589 282.5H292.089V283.5H511.589V282.5ZM291.593 282.938C291.535 283.402 291.092 284.284 289.728 285.066C288.372 285.843 286.132 286.5 282.589 286.5V287.5C286.246 287.5 288.673 286.823 290.225 285.934C291.769 285.049 292.476 283.931 292.585 283.062L291.593 282.938ZM282.589 286.5H259.089V287.5H282.589V286.5ZM259.089 300.5H497.589V299.5H259.089V300.5ZM497.589 300.5C497.769 300.5 497.97 300.446 498.152 300.384C498.347 300.318 498.573 300.224 498.822 300.11C499.321 299.88 499.939 299.554 500.629 299.159C502.011 298.369 503.708 297.292 505.363 296.135C507.016 294.978 508.639 293.733 509.866 292.606C510.479 292.043 511.005 291.499 511.387 291.003C511.755 290.526 512.05 290.019 512.087 289.538L511.09 289.462C511.077 289.631 510.945 289.939 510.595 290.392C510.261 290.826 509.782 291.326 509.19 291.869C508.008 292.955 506.424 294.172 504.79 295.315C503.157 296.458 501.485 297.518 500.133 298.291C499.456 298.678 498.866 298.989 498.404 299.201C498.172 299.308 497.981 299.386 497.831 299.437C497.756 299.462 497.696 299.479 497.651 299.489C497.604 299.5 497.586 299.5 497.589 299.5V300.5ZM511.589 283C511.089 283.026 511.089 283.026 511.089 283.026C511.089 283.026 511.089 283.026 511.089 283.026C511.09 283.026 511.09 283.026 511.09 283.026C511.09 283.027 511.09 283.027 511.09 283.028C511.09 283.03 511.09 283.033 511.09 283.036C511.09 283.043 511.091 283.054 511.092 283.069C511.093 283.097 511.095 283.14 511.098 283.195C511.103 283.306 511.11 283.467 511.117 283.669C511.133 284.073 511.152 284.638 511.164 285.285C511.189 286.581 511.188 288.186 511.09 289.462L512.087 289.538C512.189 288.214 512.189 286.569 512.164 285.265C512.151 284.612 512.132 284.039 512.117 283.631C512.109 283.426 512.102 283.263 512.097 283.15C512.094 283.094 512.092 283.05 512.09 283.02C512.09 283.005 512.089 282.994 512.089 282.986C512.089 282.982 512.088 282.98 512.088 282.978C512.088 282.977 512.088 282.976 512.088 282.975C512.088 282.975 512.088 282.975 512.088 282.975C512.088 282.975 512.088 282.975 512.088 282.974C512.088 282.974 512.088 282.974 511.589 283Z" fill="black"/>
</svg>
